<svg xmlns="http://www.w3.org/2000/svg" viewBox="0 0 1351.68 760.32"><rect width="1351.68" height="760.32" fill="#ffffff" id="bg" class="bg"/><g><g transform="translate(225.28,&#10;                                0.00) rotate(180, 112.64, 112.64)"><svg xmlns="http://www.w3.org/2000/svg" id="Layer_1" data-name="Layer 1" viewBox="0 0 100 100" width="225.28" height="225.28"><path d="M100,100H50A50.005,50.005,0,0,0,0,50V0A100,100,0,0,1,100,100Z" fill="#365984"/></svg></g><g transform="translate(0.00,&#10;                                225.28) rotate(0, 112.64, 112.64)"><svg xmlns="http://www.w3.org/2000/svg" id="Layer_1" data-name="Layer 1" viewBox="0 0 100 100" width="225.28" height="225.28"><path d="M100,100A100,100,0,0,0,0,0V100Z" fill="#365984"/><path d="M50,100A50,50,0,0,0,0,50v50Z" fill="#E79677"/></svg></g><g transform="translate(225.28,&#10;                                225.28) rotate(0, 112.64, 112.64)"><svg xmlns="http://www.w3.org/2000/svg" id="Layer_1" data-name="Layer 1" viewBox="0 0 100 100" width="225.28" height="225.28"><path d="M100,100A50,50,0,0,0,0,100Z" fill="#E58A3F"/></svg></g><g transform="translate(675.84,&#10;                                0.00) rotate(90, 112.64, 112.64)"><svg xmlns="http://www.w3.org/2000/svg" id="Layer_1" data-name="Layer 1" viewBox="0 0 100 100" width="225.28" height="225.28"><path d="M100,100A100,100,0,0,0,0,0V100Z" fill="#365984"/><path d="M50,100A50,50,0,0,0,0,50v50Z" fill="#E79677"/></svg></g><g transform="translate(450.56,&#10;                                225.28) rotate(0, 112.64, 112.64)"><svg xmlns="http://www.w3.org/2000/svg" id="Layer_1" data-name="Layer 1" viewBox="0 0 100 100" width="225.28" height="225.28"><path d="M50,100a50,50,0,1,1,50-50v50Z" fill="#E5426E"/></svg></g><g transform="translate(675.84,&#10;                                225.28) rotate(270, 112.64, 112.64)"><svg xmlns="http://www.w3.org/2000/svg" id="Layer_1" data-name="Layer 1" viewBox="0 0 100 100" width="225.28" height="225.28"><path d="M100,100H50A50.005,50.005,0,0,0,0,50V0A100,100,0,0,1,100,100Z" fill="#365984"/></svg></g><g transform="translate(1126.40,&#10;                                0.00) rotate(270, 112.64, 112.64)"><svg xmlns="http://www.w3.org/2000/svg" id="Layer_1" data-name="Layer 1" viewBox="0 0 100 100" width="225.28" height="225.28"><path d="M100,100A100,100,0,0,0,0,0V100Z" fill="#365984"/><path d="M50,100A50,50,0,0,0,0,50v50Z" fill="#E79677"/></svg></g><g transform="translate(901.12,&#10;                                225.28) rotate(180, 112.64, 112.64)"><svg xmlns="http://www.w3.org/2000/svg" id="Layer_1" data-name="Layer 1" viewBox="0 0 100 100" width="225.28" height="225.28"><path d="M100,100H50A50.005,50.005,0,0,0,0,50V0A100,100,0,0,1,100,100Z" fill="#365984"/></svg></g><g transform="translate(1126.40,&#10;                                225.28) rotate(90, 112.64, 112.64)"><svg xmlns="http://www.w3.org/2000/svg" id="Layer_1" data-name="Layer 1" viewBox="0 0 100 100" width="225.28" height="225.28"><path d="M100,100A50,50,0,0,0,0,100Z" fill="#E58A3F"/></svg></g></g><g><g transform="translate(0.00,&#10;                                450.56) rotate(90, 112.64, 112.64)"><svg xmlns="http://www.w3.org/2000/svg" id="Layer_1" data-name="Layer 1" viewBox="0 0 100 100" width="225.28" height="225.28"><path d="M50,100a50,50,0,1,1,50-50v50Z" fill="#E5426E"/></svg></g><g transform="translate(225.28,&#10;                                450.56) rotate(90, 112.64, 112.64)"><svg xmlns="http://www.w3.org/2000/svg" id="Layer_1" data-name="Layer 1" viewBox="0 0 100 100" width="225.28" height="225.28"><path d="M100,100A100,100,0,0,0,0,0V100Z" fill="#365984"/><path d="M50,100A50,50,0,0,0,0,50v50Z" fill="#E79677"/></svg></g><g transform="translate(0.00,&#10;                                675.84) rotate(180, 112.64, 112.64)"><svg xmlns="http://www.w3.org/2000/svg" id="Layer_1" data-name="Layer 1" viewBox="0 0 100 100" width="225.28" height="225.28"><path d="M100,100H50A50.005,50.005,0,0,0,0,50V0A100,100,0,0,1,100,100Z" fill="#365984"/></svg></g><g transform="translate(225.28,&#10;                                675.84) rotate(180, 112.64, 112.64)"><svg xmlns="http://www.w3.org/2000/svg" id="Layer_1" data-name="Layer 1" viewBox="0 0 100 100" width="225.28" height="225.28"><path d="M100,100A50,50,0,0,0,0,100Z" fill="#E58A3F"/></svg></g><g transform="translate(675.84,&#10;                                450.56) rotate(180, 112.64, 112.64)"><svg xmlns="http://www.w3.org/2000/svg" id="Layer_1" data-name="Layer 1" viewBox="0 0 100 100" width="225.28" height="225.28"><path d="M100,100H50A50.005,50.005,0,0,0,0,50V0A100,100,0,0,1,100,100Z" fill="#365984"/></svg></g><g transform="translate(450.56,&#10;                                675.84) rotate(180, 112.64, 112.64)"><svg xmlns="http://www.w3.org/2000/svg" id="Layer_1" data-name="Layer 1" viewBox="0 0 100 100" width="225.28" height="225.28"><path d="M50,100a50,50,0,1,1,50-50v50Z" fill="#E5426E"/></svg></g><g transform="translate(675.84,&#10;                                675.84) rotate(0, 112.64, 112.64)"><svg xmlns="http://www.w3.org/2000/svg" id="Layer_1" data-name="Layer 1" viewBox="0 0 100 100" width="225.28" height="225.28"><path d="M50,100a50,50,0,1,1,50-50v50Z" fill="#E5426E"/></svg></g><g transform="translate(1126.40,&#10;                                450.56) rotate(270, 112.64, 112.64)"><svg xmlns="http://www.w3.org/2000/svg" id="Layer_1" data-name="Layer 1" viewBox="0 0 100 100" width="225.28" height="225.28"><path d="M100,100A100,100,0,0,0,0,0V100Z" fill="#365984"/><path d="M50,100A50,50,0,0,0,0,50v50Z" fill="#E79677"/></svg></g><g transform="translate(901.12,&#10;                                675.84) rotate(0, 112.64, 112.64)"><svg xmlns="http://www.w3.org/2000/svg" id="Layer_1" data-name="Layer 1" viewBox="0 0 100 100" width="225.28" height="225.28"><path d="M50,100a50,50,0,1,1,50-50v50Z" fill="#E5426E"/></svg></g><g transform="translate(1126.40,&#10;                                675.84) rotate(90, 112.64, 112.64)"><svg xmlns="http://www.w3.org/2000/svg" id="Layer_1" data-name="Layer 1" viewBox="0 0 100 100" width="225.28" height="225.28"><path d="M50,100a50,50,0,1,1,50-50v50Z" fill="#E5426E"/></svg></g></g></svg>